<mxfile host="app.diagrams.net" modified="2023-11-02T13:50:53.945Z" agent="Mozilla/5.0 (Windows NT 10.0; Win64; x64) AppleWebKit/537.36 (KHTML, like Gecko) Chrome/118.0.0.0 Safari/537.36 Edg/118.0.2088.46" version="22.0.4" etag="04fCLJsjMpxvqOM-mM43" type="github">
  <diagram name="第 1 页" id="ZtLnYsg-9VAberuWZ0rn">
    <mxGraphModel>
      <root>
        <mxCell id="0" />
        <mxCell id="1" parent="0" />
      </root>
    </mxGraphModel>
  </diagram>
</mxfile>
